<svg width="54" height="54" viewBox="0 0 54 54" fill="none" xmlns="http://www.w3.org/2000/svg">
<path d="M11.25 29.25C11.25 31.3183 11.6574 33.3664 12.4489 35.2773C13.2404 37.1881 14.4005 38.9244 15.8631 40.3869C17.3256 41.8495 19.0619 43.0096 20.9727 43.8011C22.8836 44.5926 24.9317 45 27 45C29.0683 45 31.1164 44.5926 33.0273 43.8011C34.9381 43.0096 36.6744 41.8495 38.1369 40.3869C39.5995 38.9244 40.7596 37.1881 41.5511 35.2773C42.3426 33.3664 42.75 31.3183 42.75 29.25C42.75 27.1817 42.3426 25.1336 41.5511 23.2227C40.7596 21.3119 39.5995 19.5756 38.1369 18.1131C36.6744 16.6505 34.9381 15.4904 33.0273 14.6989C31.1164 13.9074 29.0683 13.5 27 13.5C24.9317 13.5 22.8836 13.9074 20.9727 14.6989C19.0619 15.4904 17.3256 16.6505 15.8631 18.1131C14.4005 19.5756 13.2404 21.3119 12.4489 23.2227C11.6574 25.1336 11.25 27.1817 11.25 29.25Z" stroke="#F15562" stroke-width="2" stroke-linecap="round" stroke-linejoin="round"/>
<path d="M27 22.5V29.25H31.5M15.75 9L9.5625 13.5M38.25 9L44.4375 13.5" stroke="#F15562" stroke-width="2" stroke-linecap="round" stroke-linejoin="round"/>
</svg>
