<svg width="58" height="55" viewBox="0 0 58 55" fill="none" xmlns="http://www.w3.org/2000/svg">
<path d="M54.5632 6.07575L50.8421 4.45555V30.5813L57.5901 13.627C58.7287 10.676 57.4235 7.2909 54.5632 6.07575ZM0.411967 16.7806L14.1858 51.3545C14.5914 52.4065 15.2833 53.3119 16.1763 53.9596C17.0693 54.6073 18.1245 54.9689 19.2122 55C19.9342 55 20.684 54.8553 21.406 54.5371L41.8724 45.7128C43.9551 44.8159 45.2325 42.6749 45.2881 40.5339C45.3158 39.7817 45.177 38.9427 44.9271 38.1904L31.0421 3.61652C30.6509 2.55675 29.9619 1.64462 29.0651 0.999385C28.1684 0.354153 27.1056 0.00584458 26.0158 0C25.2938 0 24.5718 0.173593 23.8775 0.433982L3.43888 9.25828C2.08028 9.83793 0.998221 10.956 0.430608 12.3666C-0.137005 13.7772 -0.14371 15.3649 0.411967 16.7806ZM45.2603 5.78643C45.2603 4.25177 44.6752 2.77997 43.6336 1.69481C42.592 0.60964 41.1793 0 39.7063 0H35.6797L45.2603 24.1294" fill="#FFD73D"/>
</svg>
