<svg width="48" height="48" viewBox="0 0 48 48" fill="none" xmlns="http://www.w3.org/2000/svg">
<path d="M39.0003 19.9998C39.0003 19.7346 38.8949 19.4803 38.7074 19.2927C38.5199 19.1052 38.2655 18.9998 38.0003 18.9998C37.7351 18.9998 37.4807 19.1052 37.2932 19.2927C37.1056 19.4803 37.0003 19.7346 37.0003 19.9998H39.0003ZM11.0003 19.9998C11.0003 19.7346 10.8949 19.4803 10.7074 19.2927C10.5199 19.1052 10.2655 18.9998 10.0003 18.9998C9.73507 18.9998 9.48072 19.1052 9.29318 19.2927C9.10564 19.4803 9.00029 19.7346 9.00029 19.9998H11.0003ZM41.2923 24.7078C41.4801 24.8956 41.7347 25.0011 42.0003 25.0011C42.2658 25.0011 42.5205 24.8956 42.7083 24.7078C42.8961 24.5201 43.0015 24.2654 43.0015 23.9998C43.0015 23.7343 42.8961 23.4796 42.7083 23.2918L41.2923 24.7078ZM24.0003 5.99983L24.7083 5.29183C24.6154 5.19871 24.505 5.12482 24.3836 5.07441C24.2621 5.024 24.1318 4.99805 24.0003 4.99805C23.8688 4.99805 23.7385 5.024 23.617 5.07441C23.4955 5.12482 23.3852 5.19871 23.2923 5.29183L24.0003 5.99983ZM5.29229 23.2918C5.10451 23.4796 4.99902 23.7343 4.99902 23.9998C4.99902 24.2654 5.10451 24.5201 5.29229 24.7078C5.48006 24.8956 5.73474 25.0011 6.00029 25.0011C6.26584 25.0011 6.52051 24.8956 6.70829 24.7078L5.29229 23.2918ZM14.0003 42.9998H34.0003V40.9998H14.0003V42.9998ZM39.0003 37.9998V19.9998H37.0003V37.9998H39.0003ZM11.0003 37.9998V19.9998H9.00029V37.9998H11.0003ZM42.7083 23.2918L24.7083 5.29183L23.2923 6.70783L41.2923 24.7078L42.7083 23.2918ZM23.2923 5.29183L5.29229 23.2918L6.70829 24.7078L24.7083 6.70783L23.2923 5.29183ZM34.0003 42.9998C35.3264 42.9998 36.5981 42.4731 37.5358 41.5354C38.4735 40.5977 39.0003 39.3259 39.0003 37.9998H37.0003C37.0003 38.7955 36.6842 39.5585 36.1216 40.1212C35.559 40.6838 34.7959 40.9998 34.0003 40.9998V42.9998ZM14.0003 40.9998C13.2046 40.9998 12.4416 40.6838 11.879 40.1212C11.3164 39.5585 11.0003 38.7955 11.0003 37.9998H9.00029C9.00029 39.3259 9.52707 40.5977 10.4648 41.5354C11.4024 42.4731 12.6742 42.9998 14.0003 42.9998V40.9998Z" fill="#F15562"/>
</svg>
