<svg width="51" height="50" viewBox="0 0 51 50" fill="none" xmlns="http://www.w3.org/2000/svg">
<g clip-path="url(#clip0_654_176)">
<path d="M45.5232 0H5.05814C3.71664 0 2.43008 0.526784 1.48149 1.46447C0.53291 2.40215 0 3.67392 0 5L0 50L10.1163 40H45.5232C46.8648 40 48.1513 39.4732 49.0999 38.5355C50.0485 37.5979 50.5814 36.3261 50.5814 35V5C50.5814 3.67392 50.0485 2.40215 49.0999 1.46447C48.1513 0.526784 46.8648 0 45.5232 0ZM35.407 10C36.1573 10 36.8907 10.2199 37.5146 10.632C38.1384 11.044 38.6247 11.6297 38.9118 12.3149C39.1989 13.0002 39.2741 13.7542 39.1277 14.4816C38.9813 15.209 38.62 15.8772 38.0895 16.4017C37.5589 16.9261 36.883 17.2833 36.1471 17.4279C35.4112 17.5726 34.6484 17.4984 33.9552 17.2145C33.262 16.9307 32.6696 16.4501 32.2527 15.8334C31.8359 15.2167 31.6134 14.4917 31.6134 13.75C31.6134 12.7554 32.013 11.8016 32.7245 11.0983C33.4359 10.3951 34.4008 10 35.407 10ZM15.1744 10C15.9247 10 16.6582 10.2199 17.282 10.632C17.9059 11.044 18.3921 11.6297 18.6793 12.3149C18.9664 13.0002 19.0415 13.7542 18.8951 14.4816C18.7488 15.209 18.3874 15.8772 17.8569 16.4017C17.3264 16.9261 16.6504 17.2833 15.9145 17.4279C15.1786 17.5726 14.4159 17.4984 13.7227 17.2145C13.0295 16.9307 12.437 16.4501 12.0202 15.8334C11.6033 15.2167 11.3808 14.4917 11.3808 13.75C11.3808 12.7554 11.7805 11.8016 12.4919 11.0983C13.2034 10.3951 14.1683 10 15.1744 10ZM25.2907 30C18.6898 30 13.0753 28.325 11.0015 22.5H39.5799C37.5061 28.325 31.8916 30 25.2907 30Z" fill="#FFD73D"/>
</g>
<defs>
<clipPath id="clip0_654_176">
<rect width="50.5814" height="50" fill="white"/>
</clipPath>
</defs>
</svg>
