<svg width="55" height="55" viewBox="0 0 55 55" fill="none" xmlns="http://www.w3.org/2000/svg">
<g clip-path="url(#clip0_817_111)">
<path d="M30.2497 32.5012C30.6975 32.5012 31.0911 32.3307 31.4305 31.9898C31.77 31.6489 31.9404 31.2553 31.9418 30.809C31.9433 30.3627 31.7728 29.9691 31.4305 29.6282C31.0882 29.2873 30.6946 29.1168 30.2497 29.1168C29.8048 29.1168 29.4112 29.2873 29.0688 29.6282C28.7265 29.9691 28.5561 30.3627 28.5575 30.809C28.559 31.2553 28.7294 31.6489 29.0688 31.9898C29.4083 32.3307 29.8019 32.5026 30.2497 32.5012ZM29.292 26.3998H31.2073C31.2637 25.4913 31.4074 24.8073 31.6385 24.348C31.8682 23.8887 32.4221 23.2473 33.3003 22.424C34.2161 21.592 34.8546 20.8481 35.2157 20.1923C35.5768 19.5394 35.7573 18.7891 35.7573 17.9412C35.7573 16.4823 35.2373 15.2668 34.1973 14.2947C33.1573 13.3211 31.8415 12.8343 30.2497 12.8343C29.0465 12.8343 27.9776 13.1593 27.043 13.8093C26.1085 14.4593 25.3971 15.3455 24.9088 16.4678L26.666 17.2413C27.0748 16.3949 27.5731 15.7593 28.161 15.3347C28.7489 14.91 29.4451 14.6984 30.2497 14.6998C31.2839 14.6998 32.1412 15.0061 32.8215 15.6185C33.5004 16.2309 33.8398 17.0218 33.8398 17.991C33.8398 18.5803 33.6752 19.1285 33.3458 19.6355C33.0151 20.1425 32.4467 20.7528 31.6407 21.4663C30.7278 22.2637 30.1081 22.9953 29.7817 23.6612C29.4552 24.3271 29.292 25.2399 29.292 26.3998ZM18.5843 37.8333C17.5862 37.8333 16.7535 37.4997 16.0862 36.8323C15.4188 36.165 15.0845 35.3323 15.083 34.3342V10.9992C15.083 10.0025 15.4174 9.16978 16.0862 8.501C16.755 7.83223 17.5877 7.49856 18.5843 7.5H41.9172C42.9138 7.5 43.7466 7.83367 44.4153 8.501C45.0841 9.16834 45.4178 10.0011 45.4163 10.9992V34.3342C45.4163 35.3308 45.0827 36.1628 44.4153 36.8302C43.748 37.4975 42.9146 37.8319 41.915 37.8333H18.5843ZM18.5843 35.6667H41.9172C42.2494 35.6667 42.5549 35.528 42.8337 35.2507C43.1125 34.9733 43.2511 34.6678 43.2497 34.3342V10.9992C43.2497 10.6669 43.111 10.3614 42.8337 10.0827C42.5563 9.80389 42.2501 9.66523 41.915 9.66667H18.5843C18.2507 9.66667 17.9445 9.80534 17.6657 10.0827C17.3869 10.36 17.2482 10.6655 17.2497 10.9992V34.3342C17.2497 34.6664 17.3883 34.9719 17.6657 35.2507C17.943 35.5294 18.2485 35.6681 18.5822 35.6667M12.0822 44.3333C11.0855 44.3333 10.2528 43.9997 9.58401 43.3323C8.91523 42.665 8.58157 41.8323 8.58301 40.8342V15.3325H10.7497V40.8342C10.7497 41.1664 10.8883 41.4719 11.1657 41.7507C11.443 42.0294 11.7485 42.1681 12.0822 42.1667H37.5838V44.3333H12.0822Z" fill="#F15562"/>
</g>
<defs>
<clipPath id="clip0_817_111">
<rect width="41" height="40" fill="white" transform="translate(7 7)"/>
</clipPath>
</defs>
</svg>
