<svg width="50" height="57" viewBox="0 0 50 57" fill="none" xmlns="http://www.w3.org/2000/svg">
<path d="M7.35294 32.083C7.35294 35.6904 5.70735 38.6152 3.67647 38.6152C1.64559 38.6152 0 35.6904 0 32.083C0 28.4756 1.64559 25.5508 3.67647 25.5508C5.70735 25.5508 7.35294 28.4756 7.35294 32.083ZM50 32.083C50 35.6904 48.3544 38.6152 46.3235 38.6152C44.2926 38.6152 42.6471 35.6904 42.6471 32.083C42.6471 28.4756 44.2926 25.5508 46.3235 25.5508C48.3544 25.5508 50 28.4756 50 32.083Z" fill="#F7DECE"/>
<path d="M4.41187 33.0007C4.41187 19.0773 13.6295 7.78955 25.0001 7.78955C36.3707 7.78955 45.5883 19.0773 45.5883 33.0007C45.5883 46.9242 36.3707 56.5788 25.0001 56.5788C13.6295 56.5788 4.41187 46.9242 4.41187 33.0007Z" fill="#F7DECE"/>
<path d="M16.1762 35.3491C15.3644 35.3491 14.7056 34.6192 14.7056 33.7161V30.45C14.7056 29.5485 15.3644 28.8169 16.1762 28.8169C16.9879 28.8169 17.6467 29.5485 17.6467 30.45V33.7161C17.6467 34.6192 16.9879 35.3491 16.1762 35.3491ZM33.8232 35.3491C33.01 35.3491 32.3526 34.6192 32.3526 33.7161V30.45C32.3526 29.5485 33.01 28.8169 33.8232 28.8169C34.6364 28.8169 35.2938 29.5485 35.2938 30.45V33.7161C35.2938 34.6192 34.6364 35.3491 33.8232 35.3491Z" fill="#662113"/>
<path d="M24.9995 48.4136C18.8406 48.4136 15.6509 46.6825 15.5186 46.6091C14.7921 46.2057 14.498 45.2242 14.8612 44.4175C15.2245 43.614 16.1009 43.2874 16.8274 43.6843C16.9024 43.7234 19.6583 45.1475 24.9995 45.1475C30.3892 45.1475 33.1465 43.6973 33.1745 43.6826C33.9039 43.2891 34.7833 43.6271 35.1392 44.4289C35.4965 45.234 35.2053 46.2073 34.4818 46.6091C34.3465 46.6825 31.1583 48.4136 24.9995 48.4136ZM26.47 40.2483H23.5289C22.7171 40.2483 22.0583 39.5183 22.0583 38.6152C22.0583 37.7122 22.7171 36.9822 23.5289 36.9822H26.47C27.2833 36.9822 27.9406 37.7122 27.9406 38.6152C27.9406 39.5183 27.2833 40.2483 26.47 40.2483Z" fill="#C1694F"/>
<path d="M25 0C11.4265 0 2.94116 10.5528 2.94116 19.3452C2.94116 28.1392 4.63822 31.6568 6.33528 28.1392L9.7294 21.104C9.7294 21.104 15.3044 20.9015 18.6985 17.3839C18.6985 17.3839 17.1235 23.9161 28.3956 17.5864C28.3956 17.5864 28.1515 23.9161 36.0294 17.3839C36.0294 17.3839 41.9691 19.3452 43.6632 28.1392C44.1338 30.579 47.0588 28.1392 47.0588 19.3452C47.0588 10.5528 40.272 0 25 0Z" fill="#292F33"/>
</svg>
