<svg width="50" height="57" viewBox="0 0 50 57" fill="none" xmlns="http://www.w3.org/2000/svg">
<path d="M50 40.8633C50 44.3351 47.3662 47.15 44.1176 47.15H5.88235C2.63382 47.15 0 44.3351 0 40.8633V9.92193C0 6.45012 8.51618 0 11.7647 0H42.0956C46.6456 0 50 3.63369 50 8.44771V40.8633Z" fill="#F4900C"/>
<path d="M47.0591 47.1501C47.0591 50.6219 44.4252 53.4367 41.1767 53.4367H8.82376C5.57523 53.4367 2.94141 50.6219 2.94141 47.1501V9.43005C2.94141 2.95635 2.91053 3.14338 10.2943 3.14338H41.1767C44.4252 3.14338 47.0591 5.95824 47.0591 9.43005V47.1501Z" fill="#CCD6DD"/>
<path d="M44.1176 48.7219C44.1176 51.3261 42.1426 53.4369 39.7059 53.4369H4.41176C1.975 53.4369 0 51.3261 0 48.7219V11.0019C0 8.39761 1.975 6.28687 4.41176 6.28687H39.7059C42.1426 6.28687 44.1176 8.39761 44.1176 11.0019V48.7219Z" fill="#E1E8ED"/>
<path d="M44.1173 50.2933C44.1173 53.7651 41.4834 56.5799 38.2349 56.5799H7.35257C4.10404 56.5799 1.47021 53.7651 1.47021 50.2933V15.7166C1.47021 12.2448 4.10404 9.42993 7.35257 9.42993H38.2349C41.4834 9.42993 44.1173 12.2448 44.1173 15.7166V50.2933Z" fill="#F4900C"/>
<path d="M41.1761 50.2932C41.1761 53.7651 38.5423 56.5799 35.2937 56.5799H7.35257C4.10404 56.5799 1.47021 53.7651 1.47021 50.2932V18.8599C1.47021 15.3881 4.10404 12.5732 7.35257 12.5732H35.7864C39.0349 12.5732 41.1761 14.8616 41.1761 18.3334V50.2932Z" fill="#FFAC33"/>
<path d="M7.35294 9.43C4.87059 9.43 4.80735 6.40926 5.88235 5.10792C7.10588 3.62898 9.00735 3.14333 12.4088 3.14333H14.7059V0H10.7074C4.87059 0 0 3.92917 0 8.44771V50.2933C0 53.7651 2.63382 56.58 5.88235 56.58H8.82353V9.43H7.35294Z" fill="#F4900C"/>
</svg>
