<svg width="50" height="57" viewBox="0 0 50 57" fill="none" xmlns="http://www.w3.org/2000/svg">
<path d="M32.8693 36.7181L17.5508 19.3851L30.6825 7.00391L43.8128 21.861L32.8693 36.7181Z" fill="#BE1931"/>
<path d="M48.1869 21.861C45.7707 24.5981 41.8519 24.5981 39.4357 21.861L30.6817 11.9573C28.2627 9.22336 28.2627 4.78601 30.6817 2.05047C33.0965 -0.68349 37.0167 -0.68349 39.4357 2.05047L48.1869 11.9573C50.6045 14.6913 50.6045 19.127 48.1869 21.861Z" fill="#DD2E44"/>
<path d="M19.3664 28.0525C19.3664 28.0525 -1.05033 55.2908 0.042345 56.5319C1.13642 57.7715 25.2103 34.665 25.2103 34.665L19.3664 28.0525Z" fill="#99AAB5"/>
<path d="M35.057 44.149C32.6422 46.8862 28.722 46.8862 26.3016 44.149L10.9845 26.8144C8.56831 24.0789 8.56831 19.6463 10.9845 16.9108C13.4021 14.1736 17.3223 14.1736 19.7399 16.9108L35.057 34.2438C37.4746 36.9809 37.4746 41.4119 35.057 44.149Z" fill="#DD2E44"/>
</svg>
