<?xml version="1.0" encoding="UTF-8" standalone="no"?>
<!-- Uploaded to: SVG Repo, www.svgrepo.com, Generator: SVG Repo Mixer Tools -->

<svg
   fill="#000000"
   height="800"
   width="800"
   version="1.1"
   id="Capa_1"
   viewBox="0 0 60 60"
   xml:space="preserve"
   sodipodi:docname="play.svg"
   xmlns:inkscape="http://www.inkscape.org/namespaces/inkscape"
   xmlns:sodipodi="http://sodipodi.sourceforge.net/DTD/sodipodi-0.dtd"
   xmlns="http://www.w3.org/2000/svg"
   xmlns:svg="http://www.w3.org/2000/svg"><defs
   id="defs391" /><sodipodi:namedview
   id="namedview389"
   pagecolor="#ffffff"
   bordercolor="#000000"
   borderopacity="0.25"
   inkscape:showpageshadow="2"
   inkscape:pageopacity="0.0"
   inkscape:pagecheckerboard="0"
   inkscape:deskcolor="#d1d1d1"
   showgrid="false" />
<g
   id="g386">
	<path
   d="m 45.563,29.174 -22,-15 C 23.256,13.966 22.86,13.943 22.532,14.116 22.205,14.289 22,14.629 22,15 v 30 c 0,0.371 0.205,0.711 0.533,0.884 C 22.679,45.962 22.84,46 23,46 c 0.197,0 0.394,-0.059 0.563,-0.174 l 22,-15 C 45.836,30.64 46,30.331 46,30 46,29.669 45.836,29.36 45.563,29.174 Z M 24,43.107 V 16.893 L 43.225,30 Z"
   id="path382" />
	<path
   d="M 30,0 C 13.458,0 0,13.458 0,30 0,46.542 13.458,60 30,60 46.542,60 60,46.542 60,30 60,13.458 46.542,0 30,0 Z m 0,58 C 14.561,58 2,45.439 2,30 2,14.561 14.561,2 30,2 45.439,2 58,14.561 58,30 58,45.439 45.439,58 30,58 Z"
   id="path384" />
</g>
<path
   style="fill:#ffffff;stroke-width:0.0980392"
   d="m 22.68511,45.884307 c -0.113877,-0.04601 -0.301377,-0.203576 -0.416667,-0.350144 L 22.058824,45.267674 V 29.994301 14.720926 l 0.244809,-0.290939 c 0.282868,-0.336169 0.620994,-0.449092 0.959434,-0.320418 0.130603,0.04965 5.232449,3.496109 11.337436,7.658787 12.101786,8.251588 11.591709,7.86361 11.258091,8.563213 -0.131106,0.274931 -2.054178,1.624398 -11.258091,7.900074 -6.104987,4.162678 -11.206644,7.609061 -11.337014,7.658627 -0.276439,0.105102 -0.304205,0.104816 -0.578379,-0.006 z M 33.709304,36.562015 C 38.948599,32.989339 43.235294,30.036431 43.235294,30 43.235294,29.93106 24.282559,16.980292 24.052441,16.891987 23.943704,16.850261 23.921569,19.067353 23.921569,30 c 0,10.932646 0.02213,13.149739 0.130872,13.108012 0.07198,-0.02762 4.417569,-2.97332 9.656863,-6.545997 z"
   id="path393" /><path
   style="fill:#ffffff;stroke-width:0.106952"
   d="M 28.274185,59.88563 C 25.345171,59.725996 21.891391,58.973822 19.162353,57.901229 16.529826,56.866567 13.474231,55.095614 11.229946,53.303786 10.061166,52.370636 7.6293637,49.938834 6.6962144,48.770053 5.5596983,47.346554 4.1882691,45.218392 3.353443,43.582795 0.90692355,38.789557 -0.11928667,33.98551 0.12069961,28.449198 0.38635574,22.3207 2.7195629,16.210749 6.6962144,11.229946 7.6293637,10.061166 10.061166,7.6293637 11.229946,6.6962144 16.208824,2.7210997 22.203047,0.42891715 28.432531,0.11797084 35.722303,-0.24589998 42.436489,1.8686362 48.395714,6.4050874 c 1.263657,0.9619566 3.886624,3.5393958 4.910085,4.8248586 1.797764,2.257983 3.562376,5.303972 4.59543,7.932407 2.67704,6.811288 2.67704,14.864005 0,21.675294 -1.034662,2.632527 -2.805615,5.688122 -4.597443,7.932406 -0.93315,1.168781 -3.364952,3.600583 -4.533733,4.533733 -2.244284,1.791828 -5.299879,3.562781 -7.932406,4.597443 -2.596004,1.020308 -6.08467,1.805711 -8.602697,1.936724 -0.640986,0.03335 -1.454202,0.07626 -1.807143,0.09536 -0.352941,0.0191 -1.322071,-0.0024 -2.153622,-0.04768 z m 5.440478,-2.083822 c 4.182615,-0.5748 8.115556,-2.034049 11.579455,-4.296354 1.562601,-1.020549 2.725346,-1.955583 4.158284,-3.343929 4.663028,-4.517918 7.424395,-9.970227 8.369308,-16.525161 0.254862,-1.767999 0.254862,-5.50473 0,-7.272728 C 57.324815,22.91663 56.404873,19.997142 54.910273,17.124031 53.595271,14.596165 52.165021,12.615444 50.161525,10.547598 45.639349,5.8801744 40.197477,3.1240924 33.636364,2.1782897 c -1.767999,-0.2548619 -5.50473,-0.2548619 -7.272728,0 C 20.930038,2.9615578 16.03579,5.1027904 12.085561,8.4249442 6.5902991,13.046476 3.2177108,19.153084 2.1782897,26.363636 c -0.2548619,1.767998 -0.2548619,5.504729 0,7.272728 0.6442493,4.469212 2.0715823,8.267905 4.4515843,11.847412 4.016188,6.040321 10.240793,10.334741 17.220394,11.880527 1.262845,0.279684 3.195106,0.566421 4.33155,0.642776 1.174689,0.07893 4.311751,-0.03746 5.532845,-0.205271 z"
   id="path182" /></svg>
