<svg width="51" height="50" viewBox="0 0 51 50" fill="none" xmlns="http://www.w3.org/2000/svg">
<path d="M27.8779 17.5H22.8197V12.5H27.8779M27.8779 37.5H22.8197V22.5H27.8779M25.3488 0C22.0276 0 18.7389 0.646644 15.6705 1.90301C12.6021 3.15938 9.81403 5.00087 7.46558 7.32233C2.72265 12.0107 0.0581055 18.3696 0.0581055 25C0.0581055 31.6304 2.72265 37.9893 7.46558 42.6777C9.81403 44.9991 12.6021 46.8406 15.6705 48.097C18.7389 49.3534 22.0276 50 25.3488 50C32.0563 50 38.4891 47.3661 43.232 42.6777C47.9749 37.9893 50.6395 31.6304 50.6395 25C50.6395 21.717 49.9853 18.4661 48.7143 15.4329C47.4434 12.3998 45.5805 9.64379 43.232 7.32233C40.8836 5.00087 38.0955 3.15938 35.0271 1.90301C31.9587 0.646644 28.67 0 25.3488 0Z" fill="#FFD73D"/>
</svg>
