<?xml version="1.0" encoding="UTF-8" standalone="no"?>
<!-- Uploaded to: SVG Repo, www.svgrepo.com, Generator: SVG Repo Mixer Tools -->

<svg
   height="800"
   width="800"
   version="1.1"
   id="Capa_1"
   viewBox="0 0 30.05 30.05"
   xml:space="preserve"
   sodipodi:docname="stop.svg"
   xmlns:inkscape="http://www.inkscape.org/namespaces/inkscape"
   xmlns:sodipodi="http://sodipodi.sourceforge.net/DTD/sodipodi-0.dtd"
   xmlns="http://www.w3.org/2000/svg"
   xmlns:svg="http://www.w3.org/2000/svg"><defs
   id="defs468" /><sodipodi:namedview
   id="namedview466"
   pagecolor="#ffffff"
   bordercolor="#000000"
   borderopacity="0.25"
   inkscape:showpageshadow="2"
   inkscape:pageopacity="0.0"
   inkscape:pagecheckerboard="0"
   inkscape:deskcolor="#d1d1d1"
   showgrid="false" />
<g
   id="g463">
	<path
   style="fill:#030104"
   d="m 18.993,10.688 h -7.936 c -0.19,0 -0.346,0.149 -0.346,0.342 v 8.022 c 0,0.189 0.155,0.344 0.346,0.344 h 7.936 c 0.19,0 0.344,-0.154 0.344,-0.344 V 11.03 c -0.001,-0.192 -0.154,-0.342 -0.344,-0.342 z"
   id="path459" />
	<path
   style="fill:#030104"
   d="M 15.026,0 C 6.729,0 0.001,6.726 0.001,15.025 c 0,8.299 6.728,15.025 15.025,15.025 8.298,0 15.023,-6.726 15.023,-15.025 C 30.049,6.726 23.324,0 15.026,0 Z m 0,27.54 C 8.114,27.54 2.51,21.936 2.51,15.025 2.51,8.111 8.114,2.508 15.026,2.508 c 6.913,0 12.514,5.603 12.514,12.517 0,6.911 -5.601,12.515 -12.514,12.515 z"
   id="path461" />
</g>
<path
   style="fill:#ffffff;stroke-width:0.0535649"
   d="m 10.939885,19.335552 c -0.06672,-0.02709 -0.145498,-0.112899 -0.175073,-0.190686 -0.03473,-0.09135 -0.04868,-1.569304 -0.03939,-4.173908 0.01383,-3.879342 0.01825,-4.036757 0.116419,-4.145211 0.102031,-0.112724 0.102439,-0.112735 4.183164,-0.112735 4.080946,0 4.081128,5e-6 4.183164,0.112754 0.09848,0.108821 0.102041,0.256369 0.102041,4.229727 0,3.880595 -0.0055,4.122465 -0.09564,4.212625 -0.08992,0.08994 -0.336264,0.09628 -4.12451,0.10617 -2.354193,0.0061 -4.079296,-0.01 -4.150175,-0.03874 z"
   id="path470" /><path
   style="fill:#ffffff;stroke-width:0.0535649"
   d="M 14.194741,29.993685 C 12.036685,29.877093 10.102648,29.343303 8.1151069,28.315716 6.7003492,27.584266 5.6180225,26.787223 4.4403999,25.6096 3.259789,24.428989 2.4611015,23.344906 1.7345364,21.936848 0.89699246,20.313717 0.42973179,18.857594 0.15255058,17.006907 c -0.09826641,-0.656106 -0.09826641,-3.307708 0,-3.963814 C 0.42890327,11.197939 0.88626642,9.7646495 1.7102429,8.1615811 2.459481,6.7039187 3.2097263,5.6796735 4.4167794,4.4665805 5.6270323,3.250272 6.6967717,2.4633675 8.1686722,1.7066734 10.154663,0.68568886 12.039716,0.17318495 14.221524,0.06103822 18.62007,-0.1650507 22.724932,1.4499195 25.792972,4.6135769 c 1.137037,1.172474 1.911743,2.2740266 2.650934,3.7693555 0.732048,1.4808783 1.089924,2.5696866 1.368547,4.1636906 0.118285,0.676712 0.147641,1.037088 0.170098,2.088144 0.02957,1.383754 -0.01716,2.033367 -0.22857,3.17805 -0.427468,2.314474 -1.485399,4.627079 -2.983306,6.521414 -0.52112,0.659037 -1.771356,1.917713 -2.398572,2.414766 -1.068729,0.846942 -2.592074,1.728767 -3.845876,2.226277 -1.380849,0.547923 -3.005944,0.916882 -4.376361,0.993602 -1.09102,0.06108 -1.247127,0.06306 -1.955125,0.02481 z M 16.7123,27.446954 c 2.649934,-0.336969 5.247815,-1.623363 7.179553,-3.555101 C 27.72601,20.057696 28.658014,14.193085 26.203304,9.3471032 24.95883,6.8903163 23.034544,4.9954527 20.542201,3.7725611 18.747294,2.8918728 17.051872,2.5011809 15.025,2.5011809 c -2.030937,0 -3.719104,0.3898155 -5.5293826,1.2767922 C 6.9781629,5.0114434 5.010016,6.9797011 3.7782962,9.4956174 2.5909939,11.920806 2.2160137,14.5481 2.6778197,17.20609 c 0.6672657,3.840542 3.1610388,7.217803 6.6277371,8.975796 2.3264972,1.179787 4.7808222,1.598984 7.4067432,1.265068 z"
   id="path182" /></svg>
